<?xml version="1.0" encoding="UTF-8" standalone="no"?>
<svg
   id="svg"
   version="1.1"
   viewBox="12.84 21.54 374.91 355.65"
   sodipodi:docname="favicon.svg"
   inkscape:version="1.2.2 (b0a8486541, 2022-12-01)"
   xmlns:inkscape="http://www.inkscape.org/namespaces/inkscape"
   xmlns:sodipodi="http://sodipodi.sourceforge.net/DTD/sodipodi-0.dtd"
   xmlns="http://www.w3.org/2000/svg"
   xmlns:svg="http://www.w3.org/2000/svg">
  <defs
     id="defs8" />
  <sodipodi:namedview
     id="namedview6"
     pagecolor="#ffffff"
     bordercolor="#000000"
     borderopacity="0.25"
     inkscape:showpageshadow="2"
     inkscape:pageopacity="0.0"
     inkscape:pagecheckerboard="0"
     inkscape:deskcolor="#d1d1d1"
     showgrid="false"
     inkscape:zoom="2.3562492"
     inkscape:cx="187.58627"
     inkscape:cy="109.92046"
     inkscape:window-width="1920"
     inkscape:window-height="1008"
     inkscape:window-x="0"
     inkscape:window-y="0"
     inkscape:window-maximized="1"
     inkscape:current-layer="svg" />
  <g
     id="svgg"
     transform="matrix(1.4283763,0,0,1.4283763,-84.824452,-62.027797)">
    <path
       id="path1"
       d="m 197.6,78.795 c 0,0.217 -0.659,0.669 -1.463,1.006 -1.584,0.661 -1.501,0.591 -6.593,5.6 -1.901,1.869 -3.637,3.399 -3.857,3.399 -0.22,0 -0.513,0.45 -0.651,1 -0.138,0.55 -0.513,1 -0.833,1 -0.321,0 -0.855,0.527 -1.188,1.172 -0.334,0.644 -0.968,1.286 -1.411,1.427 -0.442,0.14 -0.804,0.435 -0.804,0.655 0,0.402 -1.848,2.845 -3.469,4.587 -0.478,0.513 -0.982,1.29 -1.12,1.726 -0.139,0.436 -0.603,0.903 -1.031,1.039 -0.429,0.137 -0.78,0.508 -0.78,0.825 0,0.317 -0.375,0.89 -0.832,1.273 -0.458,0.383 -1.182,1.371 -1.609,2.196 -0.426,0.825 -0.961,1.5 -1.188,1.5 -0.226,0 -0.675,0.63 -0.997,1.4 -0.322,0.77 -0.76,1.4 -0.974,1.4 -0.214,0 -0.668,0.668 -1.009,1.484 -0.341,0.816 -0.974,1.813 -1.406,2.216 -0.432,0.402 -0.785,1.06 -0.785,1.462 0,0.401 -0.333,1.159 -0.741,1.684 -0.408,0.525 -1.061,1.944 -1.451,3.154 -0.391,1.21 -0.935,2.47 -1.209,2.8 -0.274,0.33 -0.721,1.32 -0.993,2.2 -0.272,0.88 -0.733,1.98 -1.024,2.445 -0.29,0.465 -0.798,1.876 -1.127,3.137 -0.329,1.261 -0.865,2.591 -1.191,2.955 -0.326,0.365 -0.719,1.563 -0.873,2.663 -0.154,1.1 -0.626,2.803 -1.05,3.785 -1.863,4.314 -1.5,7.637 1.101,10.083 5.124,4.817 12.95,12.877 13.166,13.559 0.135,0.425 0.509,0.773 0.832,0.773 0.322,0 0.696,0.315 0.832,0.7 0.135,0.385 0.676,1.15 1.2,1.7 1.234,1.293 2.823,3.124 4.328,4.987 0.66,0.817 1.695,2.077 2.3,2.802 0.605,0.724 1.1,1.589 1.1,1.921 0,0.332 0.262,0.705 0.582,0.828 0.32,0.123 0.937,0.919 1.371,1.769 0.434,0.851 1.06,1.772 1.392,2.047 0.332,0.276 0.723,1.047 0.87,1.714 0.147,0.668 0.604,1.551 1.016,1.963 0.412,0.412 0.869,1.248 1.015,1.859 0.147,0.61 0.692,1.846 1.211,2.745 0.518,0.899 0.943,1.907 0.943,2.239 0,0.332 0.365,1.024 0.811,1.539 0.446,0.514 0.917,1.396 1.047,1.961 0.13,0.564 0.641,1.746 1.135,2.626 0.495,0.88 1.123,2.32 1.397,3.2 0.274,0.88 0.731,1.787 1.016,2.016 0.285,0.229 0.732,1.219 0.993,2.2 0.262,0.981 0.713,2.054 1.003,2.384 0.291,0.33 0.918,1.68 1.393,3 0.476,1.32 1.142,3.163 1.481,4.095 0.732,2.016 1.157,1.906 1.528,-0.397 0.15,-0.934 0.509,-2.072 0.798,-2.529 0.29,-0.457 0.811,-1.792 1.16,-2.967 0.349,-1.174 0.874,-2.42 1.167,-2.769 0.293,-0.348 0.76,-1.443 1.037,-2.433 0.277,-0.99 0.743,-2.176 1.036,-2.636 0.293,-0.46 0.738,-1.63 0.99,-2.6 0.251,-0.97 0.778,-2.214 1.169,-2.764 0.392,-0.55 0.934,-1.672 1.205,-2.494 0.271,-0.822 0.659,-1.598 0.862,-1.724 0.204,-0.125 0.834,-1.208 1.4,-2.405 0.567,-1.197 1.183,-2.177 1.369,-2.177 0.187,0 0.46,-0.549 0.607,-1.219 0.147,-0.671 0.612,-1.434 1.032,-1.696 0.42,-0.263 0.764,-0.665 0.764,-0.894 0,-0.23 0.894,-1.671 1.987,-3.204 1.093,-1.533 2.238,-3.327 2.545,-3.987 0.307,-0.66 0.942,-1.543 1.413,-1.962 0.47,-0.419 0.855,-0.997 0.855,-1.284 0,-0.288 0.371,-0.869 0.825,-1.292 0.905,-0.842 2.024,-2.641 3.088,-4.962 0.378,-0.824 1.002,-1.601 1.386,-1.726 0.385,-0.125 0.807,-0.659 0.94,-1.186 0.132,-0.528 0.583,-1.068 1.001,-1.201 0.418,-0.132 0.76,-0.593 0.76,-1.023 0,-0.445 0.43,-0.977 1,-1.237 0.55,-0.25 1,-0.712 1,-1.026 0,-0.314 0.54,-0.774 1.2,-1.023 0.708,-0.268 1.2,-0.742 1.2,-1.158 0,-0.415 0.405,-0.806 0.986,-0.952 0.542,-0.136 1.094,-0.589 1.226,-1.007 0.133,-0.417 0.679,-0.869 1.215,-1.003 0.535,-0.135 0.973,-0.504 0.973,-0.82 0,-0.316 0.53,-0.879 1.178,-1.251 0.648,-0.372 1.261,-0.994 1.363,-1.382 0.102,-0.39 0.558,-0.705 1.022,-0.705 0.46,0 0.837,-0.166 0.837,-0.369 0,-0.203 0.456,-0.912 1.014,-1.575 1.073,-1.275 1.073,-1.638 -0.007,-5.056 -0.278,-0.88 -0.633,-2.941 -0.788,-4.58 -0.213,-2.24 -0.51,-3.25 -1.194,-4.063 -0.501,-0.596 -1.024,-1.789 -1.162,-2.652 -0.138,-0.864 -0.606,-1.891 -1.039,-2.284 -0.449,-0.406 -0.906,-1.511 -1.062,-2.567 -0.167,-1.137 -0.638,-2.223 -1.217,-2.809 -0.52,-0.525 -0.945,-1.366 -0.945,-1.869 0,-0.503 -0.422,-1.423 -0.938,-2.045 -0.516,-0.622 -1.057,-1.745 -1.203,-2.495 -0.146,-0.751 -0.623,-1.616 -1.062,-1.923 -0.438,-0.307 -0.797,-0.883 -0.797,-1.281 0,-0.397 -0.544,-1.407 -1.209,-2.243 -0.665,-0.837 -1.316,-1.947 -1.446,-2.466 -0.13,-0.519 -0.576,-1.126 -0.991,-1.348 -0.415,-0.222 -0.754,-0.729 -0.754,-1.127 0,-0.398 -0.378,-1.066 -0.841,-1.485 -0.462,-0.419 -1.119,-1.302 -1.46,-1.962 -0.34,-0.661 -0.951,-1.436 -1.359,-1.724 -0.407,-0.287 -0.74,-0.761 -0.74,-1.054 0,-0.292 -0.436,-0.817 -0.97,-1.166 -0.533,-0.35 -1.085,-1 -1.227,-1.446 -0.141,-0.446 -0.52,-0.811 -0.843,-0.811 -0.322,0 -0.7,-0.315 -0.84,-0.7 -0.296,-0.813 -3.633,-4.1 -4.162,-4.1 -0.197,0 -0.358,-0.274 -0.358,-0.609 0,-0.334 -0.45,-0.813 -1,-1.064 -0.55,-0.25 -1,-0.692 -1,-0.981 0,-0.289 -0.517,-0.793 -1.149,-1.12 -0.632,-0.327 -1.245,-0.961 -1.363,-1.41 -0.117,-0.449 -0.479,-0.816 -0.805,-0.816 -0.325,0 -0.886,-0.45 -1.246,-1 -0.361,-0.55 -0.925,-1 -1.255,-1 -0.329,0 -0.804,-0.45 -1.055,-1 -0.25,-0.55 -0.669,-1 -0.93,-1 -0.261,0 -0.907,-0.383 -1.436,-0.851 -0.528,-0.468 -1.515,-1.087 -2.193,-1.377 -0.677,-0.289 -1.464,-0.806 -1.749,-1.149 -0.564,-0.679 -3.219,-0.868 -3.219,-0.228 m -5.842,60.389 c 1.874,0.713 5.419,4.279 6.112,6.148 1.299,3.51 0.376,7.091 -2.556,9.916 l -2.213,2.13 -4.057,0.011 c -4.287,0.012 -6.909,-1.193 -7.679,-3.528 -0.134,-0.407 -0.563,-1.059 -0.952,-1.448 -1.54,-1.54 -1.331,-7.299 0.322,-8.839 0.442,-0.411 0.919,-1.113 1.061,-1.56 0.142,-0.448 0.412,-0.814 0.6,-0.814 0.189,0 0.851,-0.428 1.473,-0.951 1.673,-1.408 5.594,-1.937 7.889,-1.065 m 22.542,-0.013 c 1.631,0.468 4.781,3.02 5.139,4.164 0.149,0.476 0.606,1.294 1.016,1.819 1.034,1.324 1.052,5.929 0.029,7.292 -0.394,0.525 -0.932,1.454 -1.196,2.065 -0.265,0.611 -0.753,1.216 -1.085,1.343 -0.331,0.127 -0.603,0.463 -0.603,0.746 0,1.924 -10.884,1.638 -12.569,-0.33 -0.457,-0.534 -1.146,-1.078 -1.531,-1.208 -0.385,-0.13 -0.7,-0.529 -0.7,-0.886 0,-0.358 -0.36,-1.107 -0.8,-1.667 -2.342,-2.977 0.507,-10.946 4.248,-11.885 0.524,-0.132 0.952,-0.422 0.952,-0.645 0,-1.039 4.505,-1.552 7.1,-0.808 m -134.9,5.496 c -1.136,0.14 -4.745,0.914 -8.5,1.825 -1.935,0.469 -2.296,1.919 -1.108,4.448 0.326,0.693 0.849,3.111 1.163,5.373 0.313,2.262 0.844,4.531 1.179,5.043 0.336,0.512 0.812,2.041 1.058,3.397 0.246,1.357 0.785,3.048 1.198,3.757 0.413,0.71 0.873,1.959 1.023,2.776 0.149,0.817 0.512,1.686 0.807,1.931 0.295,0.244 0.843,1.376 1.217,2.514 0.375,1.138 1.014,2.498 1.422,3.023 0.408,0.525 0.741,1.265 0.741,1.646 0,0.381 0.358,1.148 0.796,1.705 0.439,0.557 1.172,1.796 1.631,2.754 1.292,2.699 2.524,4.935 3.067,5.566 1.285,1.496 2.475,3.096 3.237,4.353 0.937,1.546 5.462,6.878 7.656,9.022 0.225,0.22 1.654,1.705 3.176,3.3 1.521,1.595 2.933,2.9 3.137,2.9 0.204,0 0.577,0.45 0.827,1 0.251,0.55 0.709,1 1.018,1 0.31,0 0.858,0.45 1.218,1 0.361,0.55 0.849,1 1.086,1 0.236,0 0.931,0.495 1.542,1.1 0.612,0.605 1.871,1.64 2.798,2.3 0.926,0.66 2.126,1.605 2.666,2.1 0.54,0.495 1.139,0.9 1.332,0.9 0.194,0 0.86,0.425 1.482,0.944 1.045,0.872 1.812,1.352 4.959,3.103 0.639,0.356 1.459,0.896 1.821,1.2 0.704,0.592 2.84,1.762 5.751,3.151 0.99,0.473 2.07,1.096 2.4,1.386 0.33,0.29 1.193,0.653 1.918,0.807 0.724,0.154 1.624,0.592 2,0.973 0.375,0.381 1.521,1.004 2.547,1.384 1.025,0.38 1.965,0.952 2.087,1.272 0.123,0.319 0.564,0.58 0.98,0.58 0.417,0 1.437,0.54 2.268,1.2 0.831,0.66 1.724,1.2 1.985,1.2 0.262,0 0.898,0.45 1.415,1 0.517,0.55 1.109,1 1.317,1 0.208,0 0.992,0.54 1.744,1.2 0.752,0.66 1.603,1.2 1.891,1.2 0.288,0 0.857,0.368 1.265,0.819 0.407,0.45 1.335,1.1 2.062,1.445 0.727,0.345 1.321,0.782 1.321,0.971 0,0.19 0.585,0.646 1.3,1.014 0.715,0.369 1.535,1.003 1.823,1.411 0.287,0.407 0.718,0.74 0.958,0.74 0.239,0 0.814,0.362 1.277,0.804 1.708,1.629 3.567,3.196 3.801,3.202 0.133,0.004 0.85,0.544 1.595,1.2 0.745,0.657 1.49,1.194 1.656,1.194 0.165,0 1.323,0.99 2.572,2.2 1.25,1.21 2.428,2.2 2.618,2.2 0.19,0 0.457,0.351 0.594,0.78 0.136,0.428 0.597,0.89 1.026,1.026 0.428,0.136 0.884,0.668 1.013,1.183 0.129,0.514 0.579,1.025 0.999,1.135 0.42,0.11 0.871,0.48 1.003,0.823 0.131,0.342 1.477,1.921 2.991,3.509 1.514,1.588 3.119,3.665 3.566,4.615 0.446,0.951 0.996,1.729 1.22,1.729 0.224,0 0.584,0.462 0.798,1.027 0.215,0.565 0.841,1.617 1.39,2.338 0.55,0.721 1,1.609 1,1.973 0,1.004 0.488,0.802 1.684,-0.697 0.928,-1.163 1.032,-1.54 0.719,-2.629 -0.219,-0.766 -0.218,-2.888 0.003,-5.342 0.468,-5.192 0.464,-19.672 -0.007,-23.07 -0.946,-6.825 -2.043,-12.971 -2.39,-13.389 -0.211,-0.254 -0.668,-2.23 -1.016,-4.391 -0.348,-2.161 -0.958,-4.579 -1.356,-5.374 -0.399,-0.795 -0.846,-2.518 -0.994,-3.829 -0.148,-1.311 -0.523,-2.663 -0.832,-3.005 -0.31,-0.342 -0.771,-1.52 -1.026,-2.617 -0.254,-1.097 -0.795,-2.715 -1.202,-3.595 -0.406,-0.88 -0.939,-2.374 -1.182,-3.321 -0.244,-0.947 -0.794,-2.072 -1.222,-2.5 -0.428,-0.428 -0.779,-1.125 -0.779,-1.547 0,-0.856 -2.539,-6.102 -3.672,-7.586 -0.4,-0.525 -0.728,-1.268 -0.728,-1.651 0,-0.383 -0.283,-0.932 -0.629,-1.219 -0.346,-0.287 -0.984,-1.217 -1.417,-2.066 -0.433,-0.849 -1.14,-1.896 -1.571,-2.327 -0.43,-0.43 -0.783,-0.961 -0.783,-1.18 0,-0.45 -2.396,-3.788 -3.602,-5.017 -0.439,-0.448 -0.8,-0.988 -0.802,-1.2 -0.003,-0.212 -0.782,-1.229 -1.733,-2.26 -0.95,-1.03 -2.189,-2.47 -2.753,-3.2 -2.161,-2.797 -7.825,-8.221 -12.6,-12.065 -0.315,-0.254 -1.125,-0.956 -1.8,-1.561 -0.676,-0.605 -1.403,-1.1 -1.617,-1.1 -0.213,0 -1.002,-0.54 -1.754,-1.2 -0.752,-0.66 -1.62,-1.2 -1.93,-1.2 -0.31,0 -0.799,-0.332 -1.086,-0.739 -0.288,-0.406 -1.176,-0.953 -1.975,-1.215 -0.798,-0.262 -1.755,-0.812 -2.126,-1.221 -0.371,-0.41 -1.303,-0.864 -2.07,-1.008 -0.768,-0.144 -1.722,-0.587 -2.12,-0.985 -0.397,-0.397 -1.422,-0.849 -2.277,-1.005 -0.855,-0.155 -1.839,-0.647 -2.186,-1.093 -0.377,-0.485 -1.424,-0.958 -2.6,-1.176 -1.083,-0.2 -2.173,-0.638 -2.422,-0.973 -0.249,-0.334 -1.599,-0.806 -3,-1.049 -1.401,-0.242 -3.077,-0.709 -3.725,-1.038 -0.647,-0.33 -2.807,-0.835 -4.8,-1.124 -1.992,-0.289 -5.592,-0.897 -7.999,-1.35 -4.119,-0.775 -19.744,-1.132 -24.423,-0.557 M 301,144.652 c -0.66,0.098 -3,0.521 -5.2,0.94 -2.2,0.419 -5.278,0.934 -6.841,1.144 -1.562,0.21 -3.362,0.647 -4,0.972 -0.637,0.325 -2.239,0.719 -3.559,0.877 -1.32,0.158 -2.94,0.615 -3.6,1.015 -0.66,0.4 -2.006,0.941 -2.99,1.203 -0.985,0.262 -2.019,0.803 -2.298,1.201 -0.279,0.399 -1.23,0.847 -2.112,0.996 -0.882,0.149 -1.833,0.597 -2.112,0.996 -0.279,0.398 -1.262,0.928 -2.185,1.176 -0.922,0.249 -1.817,0.69 -1.99,0.981 -0.424,0.718 -1.878,1.447 -2.887,1.447 -0.48,0 -0.826,0.26 -0.826,0.62 0,0.342 -0.638,0.887 -1.417,1.213 -0.78,0.326 -1.514,0.843 -1.631,1.149 -0.118,0.306 -0.896,0.829 -1.731,1.163 -0.834,0.334 -1.625,0.888 -1.756,1.231 -0.132,0.343 -0.565,0.624 -0.963,0.624 -0.398,0 -1.195,0.495 -1.771,1.1 -0.575,0.605 -1.704,1.64 -2.508,2.3 -0.804,0.66 -3.21,2.91 -5.347,5 -2.136,2.09 -5.053,4.914 -6.48,6.275 -3.06,2.918 -4.796,4.924 -4.796,5.541 0,0.245 -0.433,0.851 -0.962,1.348 -0.529,0.497 -1.077,1.516 -1.217,2.265 -0.141,0.749 -0.608,1.55 -1.038,1.78 -0.431,0.231 -0.783,0.764 -0.783,1.186 0,0.945 -0.818,2.805 -1.233,2.805 -0.168,0 -0.503,0.601 -0.746,1.337 -0.243,0.735 -0.887,1.724 -1.431,2.197 -0.545,0.473 -0.99,1.222 -0.99,1.663 0,0.442 -0.327,1.13 -0.728,1.531 -0.4,0.4 -1.04,1.51 -1.423,2.466 -0.383,0.957 -1.045,2.184 -1.472,2.727 -0.428,0.543 -0.777,1.288 -0.777,1.655 0,0.368 -0.441,1.266 -0.979,1.996 -0.539,0.729 -1.101,1.889 -1.25,2.577 -0.149,0.688 -0.626,1.754 -1.06,2.368 -0.471,0.667 -0.935,2.268 -1.148,3.967 -0.197,1.566 -0.606,3.227 -0.909,3.689 -0.303,0.463 -0.745,2.278 -0.982,4.034 -0.238,1.756 -0.735,4.003 -1.104,4.993 -0.37,0.99 -0.902,3.802 -1.183,6.249 -0.281,2.446 -0.776,4.966 -1.098,5.6 -1.086,2.129 -2.206,35.539 -1.271,37.88 0.315,0.787 3.384,-1.717 3.384,-2.761 0,-0.259 0.283,-0.705 0.629,-0.992 0.346,-0.287 0.984,-1.217 1.417,-2.066 0.433,-0.849 1.14,-1.896 1.571,-2.327 0.43,-0.43 0.783,-0.945 0.783,-1.143 0,-0.464 2.625,-4.368 3.649,-5.426 0.433,-0.448 2.487,-2.524 4.564,-4.614 3.735,-3.759 4.681,-4.61 8.187,-7.363 0.99,-0.778 2.234,-1.779 2.763,-2.225 0.53,-0.447 1.195,-0.812 1.478,-0.812 0.282,0 0.749,-0.333 1.036,-0.74 0.288,-0.408 1.063,-1.019 1.724,-1.359 0.66,-0.341 1.543,-0.998 1.962,-1.46 0.419,-0.463 1.072,-0.841 1.453,-0.841 0.381,0 0.987,-0.45 1.347,-1 0.361,-0.55 0.899,-1 1.197,-1 0.298,0 0.789,-0.299 1.091,-0.665 0.302,-0.366 1.314,-1.004 2.249,-1.419 0.935,-0.414 1.7,-0.917 1.7,-1.116 0,-0.199 0.765,-0.702 1.7,-1.116 0.935,-0.415 1.947,-1.053 2.249,-1.419 0.302,-0.366 0.783,-0.665 1.069,-0.665 0.286,0 1.057,-0.451 1.711,-1.002 0.655,-0.551 1.756,-1.115 2.445,-1.253 0.69,-0.138 1.417,-0.555 1.617,-0.927 0.199,-0.373 1.071,-0.89 1.938,-1.149 0.867,-0.26 1.792,-0.733 2.056,-1.05 0.263,-0.318 1.14,-0.789 1.947,-1.048 0.807,-0.258 1.828,-0.79 2.268,-1.182 0.44,-0.392 1.565,-0.939 2.5,-1.214 0.935,-0.276 1.7,-0.66 1.7,-0.853 0,-0.193 0.768,-0.679 1.706,-1.082 0.938,-0.402 1.94,-1.014 2.227,-1.36 0.287,-0.346 1.062,-0.747 1.722,-0.892 0.659,-0.145 1.299,-0.523 1.421,-0.841 0.121,-0.317 0.86,-0.844 1.64,-1.17 0.781,-0.326 1.655,-0.929 1.943,-1.339 0.287,-0.411 0.977,-0.861 1.532,-1 0.555,-0.139 1.009,-0.426 1.009,-0.637 0,-0.212 0.675,-0.729 1.5,-1.15 0.825,-0.421 1.843,-1.145 2.262,-1.608 0.419,-0.464 0.964,-0.843 1.211,-0.843 0.247,0 0.913,-0.495 1.481,-1.1 0.567,-0.605 1.642,-1.603 2.389,-2.218 1.675,-1.38 2.036,-1.706 2.613,-2.363 0.251,-0.285 1.189,-1.149 2.084,-1.919 0.895,-0.77 1.635,-1.604 1.644,-1.854 0.009,-0.25 0.452,-0.74 0.986,-1.089 0.533,-0.35 1.085,-1 1.227,-1.446 0.141,-0.446 0.519,-0.811 0.84,-0.811 0.32,0 0.75,-0.439 0.954,-0.976 0.204,-0.536 0.739,-1.173 1.19,-1.414 0.45,-0.241 0.819,-0.698 0.819,-1.015 0,-0.317 0.45,-0.871 1,-1.232 0.55,-0.36 1,-0.89 1,-1.178 0,-0.288 0.445,-1.052 0.989,-1.699 0.544,-0.646 1.169,-1.65 1.39,-2.23 0.221,-0.581 0.64,-1.056 0.931,-1.056 0.292,0 0.924,-0.81 1.405,-1.8 0.481,-0.99 1.043,-1.8 1.248,-1.8 0.205,0 0.492,-0.541 0.638,-1.203 0.145,-0.662 0.603,-1.385 1.017,-1.607 0.415,-0.222 0.972,-1.131 1.238,-2.02 0.267,-0.89 0.813,-1.793 1.214,-2.008 0.402,-0.214 0.73,-0.713 0.73,-1.107 0,-0.395 0.518,-1.514 1.151,-2.486 0.633,-0.973 1.267,-2.419 1.408,-3.214 0.141,-0.795 0.613,-1.768 1.049,-2.162 0.436,-0.394 0.792,-1.224 0.792,-1.843 0,-0.62 0.43,-2.077 0.957,-3.238 0.526,-1.162 1.083,-3.102 1.237,-4.312 0.155,-1.21 0.639,-2.82 1.076,-3.578 0.478,-0.829 0.932,-2.663 1.138,-4.6 0.188,-1.772 0.468,-4.254 0.621,-5.516 0.348,-2.855 -0.014,-3.346 -2.741,-3.721 -1.14,-0.157 -2.795,-0.557 -3.68,-0.89 -1.582,-0.595 -19.697,-1.106 -22.808,-0.643"
       stroke="none"
       fill="#f3b4b2"
       fill-rule="evenodd" />
  </g>
</svg>
