<svg xmlns="http://www.w3.org/2000/svg" xmlns:xlink="http://www.w3.org/1999/xlink" id="svg" version="1.1" viewBox="12.84 21.54 374.91 355.65"><g id="svgg"><path id="path0" d="M121.800 22.019 C 115.143 22.248,109.246 22.764,106.000 23.403 C 105.450 23.511,102.043 23.783,98.428 24.008 C 94.813 24.232,90.853 24.670,89.628 24.982 C 88.403 25.293,85.870 25.754,84.000 26.006 C 82.130 26.258,79.520 26.798,78.200 27.206 C 76.880 27.615,74.727 28.161,73.416 28.420 C 72.105 28.679,70.665 29.123,70.216 29.407 C 69.767 29.690,68.795 30.048,68.057 30.202 C 66.511 30.525,63.107 32.014,57.400 34.864 C 53.700 36.712,52.582 37.355,49.450 39.436 C 48.817 39.856,47.827 40.508,47.250 40.885 C 45.885 41.776,44.264 43.124,39.176 47.600 C 36.840 49.654,33.099 53.759,31.505 56.016 C 31.123 56.557,30.227 57.810,29.514 58.800 C 26.606 62.840,25.991 63.875,22.267 71.000 C 20.267 74.825,18.248 80.399,17.341 84.600 C 17.009 86.140,16.396 88.660,15.979 90.200 C 15.563 91.740,15.029 94.980,14.793 97.400 C 14.557 99.820,14.176 102.510,13.946 103.377 C 12.987 106.991,12.827 120.969,12.843 199.600 C 12.862 293.307,12.959 296.682,15.980 308.800 C 16.391 310.450,16.944 312.873,17.209 314.184 C 17.475 315.495,17.931 316.935,18.224 317.384 C 18.516 317.833,18.944 319.100,19.175 320.200 C 19.405 321.300,19.938 322.920,20.359 323.800 C 20.780 324.680,21.696 326.660,22.396 328.200 C 23.096 329.740,23.920 331.450,24.227 332.000 C 24.535 332.550,25.108 333.630,25.500 334.400 C 26.919 337.184,30.765 342.753,32.959 345.200 C 33.254 345.530,34.195 346.610,35.048 347.600 C 37.215 350.114,44.642 357.082,46.368 358.221 C 47.155 358.740,48.831 359.893,50.090 360.783 C 51.350 361.672,52.506 362.400,52.659 362.400 C 52.812 362.400,53.221 362.643,53.569 362.940 C 54.241 363.515,58.489 365.744,61.800 367.258 C 64.482 368.485,68.510 369.927,71.200 370.623 C 72.410 370.936,74.218 371.458,75.217 371.783 C 76.217 372.108,78.377 372.583,80.017 372.839 C 81.658 373.095,83.990 373.559,85.200 373.870 C 86.410 374.182,89.290 374.611,91.600 374.824 C 93.910 375.037,98.320 375.480,101.400 375.807 C 112.824 377.022,124.065 377.187,195.883 377.195 C 260.144 377.202,284.482 376.947,288.925 376.218 C 289.626 376.103,294.610 375.729,300.000 375.388 C 305.390 375.047,310.880 374.509,312.200 374.192 C 313.520 373.875,316.130 373.364,318.000 373.055 C 322.380 372.333,328.160 370.888,330.200 370.004 C 331.080 369.623,332.880 368.999,334.200 368.618 C 335.520 368.236,336.780 367.785,337.000 367.614 C 337.220 367.444,338.120 367.082,339.000 366.810 C 339.880 366.539,341.230 365.924,342.000 365.445 C 342.770 364.966,343.850 364.343,344.400 364.060 C 353.978 359.137,365.573 348.745,371.247 340.000 C 374.564 334.889,375.124 333.932,376.900 330.355 C 381.453 321.180,385.033 308.737,386.150 298.200 C 387.799 282.639,387.802 282.442,387.736 198.600 L 387.672 117.800 386.631 106.400 C 386.059 100.130,385.303 93.830,384.952 92.400 C 384.601 90.970,384.156 88.900,383.963 87.800 C 383.664 86.096,381.898 80.749,379.770 75.102 C 377.678 69.552,373.116 62.058,367.400 54.781 C 366.740 53.941,365.660 52.504,365.000 51.587 C 363.725 49.816,357.821 44.149,355.306 42.283 C 354.478 41.668,353.100 40.633,352.245 39.983 C 351.390 39.332,350.504 38.800,350.276 38.800 C 350.049 38.800,349.522 38.491,349.104 38.113 C 347.989 37.104,345.869 35.887,341.600 33.806 C 339.510 32.787,337.170 31.626,336.400 31.226 C 335.630 30.825,334.280 30.272,333.400 29.997 C 332.520 29.721,331.618 29.353,331.395 29.178 C 331.172 29.003,329.912 28.592,328.595 28.263 C 327.278 27.935,325.477 27.397,324.594 27.068 C 323.711 26.738,321.594 26.275,319.889 26.038 C 318.185 25.801,316.135 25.333,315.333 24.998 C 314.344 24.585,311.360 24.262,306.038 23.995 C 301.727 23.778,294.780 23.336,290.600 23.014 C 274.010 21.733,151.205 21.010,121.800 22.019 M268.330 38.801 C 295.909 39.570,311.391 41.006,320.600 43.651 C 326.061 45.219,331.601 47.164,332.400 47.795 C 332.730 48.055,333.630 48.512,334.400 48.810 C 335.170 49.107,336.357 49.767,337.038 50.275 C 337.719 50.784,338.404 51.200,338.561 51.200 C 339.175 51.200,346.264 57.014,348.600 59.434 C 352.249 63.213,356.217 68.031,357.600 70.364 C 358.150 71.291,358.987 72.650,359.460 73.384 C 359.933 74.117,360.446 75.115,360.600 75.600 C 360.754 76.085,361.312 77.119,361.840 77.897 C 362.368 78.675,362.800 79.518,362.800 79.771 C 362.800 80.024,363.165 80.944,363.611 81.815 C 364.057 82.687,364.673 84.300,364.980 85.400 C 365.287 86.500,365.896 88.480,366.334 89.800 C 368.142 95.249,369.013 102.001,370.000 118.200 C 370.979 134.272,369.991 276.002,368.815 288.200 C 368.369 292.830,366.607 303.045,365.986 304.600 C 365.722 305.260,365.180 306.970,364.780 308.400 C 363.711 312.223,362.290 316.118,361.558 317.227 C 361.204 317.762,360.776 318.650,360.605 319.200 C 360.435 319.750,359.979 320.650,359.593 321.200 C 359.207 321.750,358.597 322.830,358.237 323.600 C 357.411 325.369,355.795 328.021,355.343 328.349 C 355.153 328.487,354.245 329.592,353.324 330.805 C 351.215 333.582,345.686 338.964,342.800 341.049 C 338.701 344.009,327.909 349.965,326.558 350.013 C 326.361 350.019,325.300 350.468,324.200 351.009 C 323.100 351.550,321.972 351.994,321.692 351.996 C 321.413 351.998,319.955 352.430,318.452 352.955 C 316.949 353.480,314.928 354.032,313.960 354.182 C 312.992 354.332,311.120 354.795,309.800 355.211 C 308.480 355.627,304.340 356.256,300.600 356.609 C 296.860 356.962,292.630 357.419,291.200 357.624 C 285.876 358.389,210.982 359.216,207.636 358.547 C 205.521 358.124,205.554 358.523,205.324 330.469 C 205.101 303.133,205.382 293.607,206.635 286.157 C 207.777 279.371,206.340 277.600,199.690 277.600 C 191.847 277.600,190.305 279.204,191.973 285.625 C 194.657 295.952,195.290 315.008,194.060 348.400 C 193.749 356.863,193.589 357.840,192.463 358.155 C 188.502 359.265,116.620 358.486,104.400 357.201 C 93.358 356.040,84.370 354.434,80.971 353.014 C 80.282 352.726,78.927 352.361,77.959 352.204 C 76.397 351.949,71.799 350.226,69.900 349.184 C 68.515 348.424,67.777 348.040,66.400 347.364 C 61.614 345.012,60.942 344.574,56.665 341.020 C 49.829 335.340,44.949 329.352,41.071 321.885 C 38.328 316.603,34.799 306.121,33.368 299.000 C 33.014 297.240,32.470 294.558,32.160 293.041 C 31.849 291.523,31.417 287.743,31.199 284.641 C 30.981 281.538,30.604 276.750,30.362 274.000 C 29.822 267.872,29.871 118.369,30.415 114.400 C 30.611 112.970,31.045 108.687,31.379 104.882 C 31.714 101.077,32.262 96.906,32.597 95.612 C 32.932 94.318,33.464 92.031,33.780 90.530 C 34.651 86.383,37.228 79.392,38.842 76.800 C 39.048 76.470,39.495 75.591,39.836 74.846 C 40.177 74.101,40.772 73.021,41.159 72.446 C 41.546 71.871,42.561 70.320,43.415 69.000 C 44.269 67.680,45.192 66.330,45.465 66.000 C 50.643 59.759,55.878 54.805,59.624 52.600 C 60.371 52.160,61.707 51.375,62.592 50.854 C 63.476 50.334,65.190 49.500,66.400 49.001 C 67.610 48.502,69.950 47.515,71.600 46.808 C 74.231 45.681,76.679 44.844,82.000 43.252 C 85.890 42.087,94.750 40.703,100.376 40.381 C 103.799 40.184,109.120 39.826,112.200 39.585 C 126.012 38.501,237.508 37.941,268.330 38.801 M75.000 233.092 C 71.239 233.251,61.471 234.441,60.746 234.829 C 58.192 236.196,60.788 254.739,65.083 265.800 C 65.424 266.680,66.001 268.210,66.365 269.200 C 67.039 271.036,68.979 275.316,69.628 276.400 C 69.826 276.730,70.259 277.630,70.590 278.400 C 70.921 279.170,71.372 280.070,71.592 280.400 C 71.813 280.730,72.489 281.871,73.096 282.936 C 75.348 286.885,75.706 287.451,79.080 292.400 C 80.051 293.824,83.744 298.156,86.579 301.196 C 88.516 303.274,93.553 307.709,100.776 313.696 C 103.260 315.755,115.868 323.595,116.700 323.598 C 116.975 323.599,118.055 324.042,119.100 324.582 C 122.653 326.419,124.997 327.485,126.600 327.995 C 127.480 328.275,128.398 328.661,128.641 328.852 C 128.883 329.043,130.233 329.633,131.641 330.162 C 136.789 332.098,139.621 333.022,144.000 334.192 C 145.870 334.692,147.850 335.292,148.400 335.526 C 148.950 335.760,150.908 336.156,152.751 336.405 C 154.594 336.655,156.574 337.046,157.151 337.274 C 157.728 337.502,160.810 338.027,164.000 338.441 C 167.190 338.854,171.600 339.460,173.800 339.788 C 176.000 340.116,179.105 340.388,180.700 340.392 L 183.600 340.400 183.600 338.273 C 183.600 337.103,183.345 335.258,183.034 334.173 C 182.723 333.088,182.253 330.850,181.989 329.200 C 181.726 327.550,181.187 325.480,180.792 324.600 C 180.398 323.720,179.879 321.940,179.641 320.645 C 179.402 319.350,179.028 318.075,178.810 317.811 C 178.591 317.548,177.975 315.908,177.440 314.166 C 175.875 309.067,175.194 307.101,174.405 305.400 C 173.997 304.520,173.006 302.360,172.203 300.600 C 171.400 298.840,170.543 297.040,170.298 296.600 C 170.053 296.160,169.605 295.260,169.301 294.600 C 168.998 293.940,168.582 293.130,168.378 292.800 C 168.173 292.470,167.459 291.210,166.790 290.000 C 163.661 284.341,157.326 275.211,154.841 272.781 C 154.269 272.221,152.450 270.249,150.800 268.400 C 149.150 266.550,147.080 264.363,146.200 263.541 C 145.320 262.718,143.161 260.685,141.403 259.023 C 139.645 257.360,138.070 256.000,137.903 256.000 C 137.736 256.000,137.279 255.685,136.887 255.300 C 135.805 254.238,130.179 249.990,127.646 248.321 C 126.411 247.508,124.967 246.533,124.437 246.155 C 123.907 245.777,122.737 245.086,121.837 244.620 C 120.937 244.154,119.840 243.584,119.400 243.352 C 116.739 241.953,114.041 240.774,113.000 240.556 C 112.340 240.418,111.420 240.069,110.956 239.780 C 110.492 239.491,109.052 238.950,107.756 238.577 C 106.460 238.205,104.910 237.650,104.311 237.345 C 103.712 237.040,101.912 236.536,100.311 236.224 C 98.710 235.912,96.676 235.396,95.790 235.078 C 94.905 234.760,92.655 234.378,90.790 234.231 C 88.926 234.083,86.140 233.797,84.600 233.595 C 80.993 233.123,77.999 232.966,75.000 233.092 M314.000 234.062 C 311.910 234.256,309.390 234.577,308.400 234.776 C 301.695 236.125,298.419 236.892,297.200 237.399 C 296.430 237.720,294.900 238.190,293.800 238.445 C 292.700 238.699,291.170 239.231,290.400 239.627 C 289.630 240.023,288.280 240.561,287.400 240.824 C 286.520 241.086,285.530 241.534,285.200 241.819 C 284.870 242.104,284.079 242.468,283.442 242.627 C 282.804 242.786,281.004 243.613,279.442 244.465 C 277.879 245.316,275.970 246.328,275.200 246.714 C 273.071 247.778,269.927 249.654,268.725 250.575 C 268.134 251.029,266.793 252.030,265.746 252.800 C 264.699 253.570,263.202 254.784,262.421 255.498 C 261.639 256.212,260.055 257.562,258.899 258.498 C 252.509 263.675,245.637 271.300,239.163 280.400 C 238.302 281.610,237.435 282.800,237.236 283.044 C 237.037 283.288,236.452 284.251,235.937 285.184 C 235.422 286.117,234.519 287.717,233.931 288.740 C 233.343 289.763,232.009 292.310,230.967 294.400 C 229.925 296.490,228.855 298.470,228.591 298.800 C 228.327 299.130,227.828 300.210,227.484 301.200 C 226.474 304.099,224.387 308.968,223.978 309.380 C 223.770 309.589,223.600 310.075,223.600 310.460 C 223.600 310.845,222.981 313.104,222.224 315.480 C 219.711 323.373,218.292 330.455,217.721 337.956 L 217.527 340.513 223.263 340.286 C 226.419 340.162,230.440 339.793,232.200 339.468 C 233.960 339.143,237.200 338.661,239.400 338.398 C 241.600 338.135,243.721 337.748,244.114 337.538 C 244.507 337.328,246.326 336.914,248.157 336.618 C 249.989 336.322,252.007 335.815,252.644 335.492 C 253.280 335.170,255.233 334.591,256.984 334.207 C 258.736 333.822,260.536 333.276,260.984 332.992 C 261.433 332.709,262.610 332.352,263.600 332.200 C 264.590 332.048,265.945 331.611,266.612 331.228 C 267.278 330.844,268.358 330.399,269.012 330.238 C 271.066 329.730,275.614 327.750,282.800 324.233 C 288.888 321.254,291.397 319.730,298.000 315.000 C 298.770 314.448,300.036 313.570,300.814 313.048 C 305.313 310.028,319.024 295.584,321.363 291.400 C 322.195 289.913,323.792 287.599,324.538 286.800 C 324.846 286.470,325.224 285.794,325.377 285.298 C 325.530 284.802,326.068 283.902,326.573 283.298 C 327.078 282.694,327.629 281.750,327.798 281.200 C 327.967 280.650,328.418 279.750,328.800 279.200 C 329.182 278.650,329.627 277.750,329.789 277.200 C 329.950 276.650,330.400 275.645,330.788 274.967 C 331.176 274.290,331.719 273.030,331.995 272.167 C 332.271 271.305,332.816 270.060,333.205 269.400 C 333.595 268.740,334.043 267.570,334.200 266.800 C 334.358 266.030,334.811 264.770,335.206 264.000 C 336.118 262.226,338.278 255.167,338.633 252.805 C 338.781 251.818,339.156 250.293,339.465 249.415 C 341.303 244.206,341.282 234.990,339.431 234.610 C 334.652 233.630,321.667 233.350,314.000 234.062 " stroke="none" fill="#91a296" fill-rule="evenodd"/><path id="path1" d="M197.600 78.795 C 197.600 79.012,196.941 79.464,196.137 79.801 C 194.553 80.462,194.636 80.392,189.544 85.401 C 187.643 87.270,185.907 88.800,185.687 88.800 C 185.467 88.800,185.174 89.250,185.036 89.800 C 184.898 90.350,184.523 90.800,184.203 90.800 C 183.882 90.800,183.348 91.327,183.015 91.972 C 182.681 92.616,182.047 93.258,181.604 93.399 C 181.162 93.539,180.800 93.834,180.800 94.054 C 180.800 94.456,178.952 96.899,177.331 98.641 C 176.853 99.154,176.349 99.931,176.211 100.367 C 176.072 100.803,175.608 101.270,175.180 101.406 C 174.751 101.543,174.400 101.914,174.400 102.231 C 174.400 102.548,174.025 103.121,173.568 103.504 C 173.110 103.887,172.386 104.875,171.959 105.700 C 171.533 106.525,170.998 107.200,170.771 107.200 C 170.545 107.200,170.096 107.830,169.774 108.600 C 169.452 109.370,169.014 110.000,168.800 110.000 C 168.586 110.000,168.132 110.668,167.791 111.484 C 167.450 112.300,166.817 113.297,166.385 113.700 C 165.953 114.102,165.600 114.760,165.600 115.162 C 165.600 115.563,165.267 116.321,164.859 116.846 C 164.451 117.371,163.798 118.790,163.408 120.000 C 163.017 121.210,162.473 122.470,162.199 122.800 C 161.925 123.130,161.478 124.120,161.206 125.000 C 160.934 125.880,160.473 126.980,160.182 127.445 C 159.892 127.910,159.384 129.321,159.055 130.582 C 158.726 131.843,158.190 133.173,157.864 133.537 C 157.538 133.902,157.145 135.100,156.991 136.200 C 156.837 137.300,156.365 139.003,155.941 139.985 C 154.078 144.299,154.441 147.622,157.042 150.068 C 162.166 154.885,169.992 162.945,170.208 163.627 C 170.343 164.052,170.717 164.400,171.040 164.400 C 171.362 164.400,171.736 164.715,171.872 165.100 C 172.007 165.485,172.548 166.250,173.072 166.800 C 174.306 168.093,175.895 169.924,177.400 171.787 C 178.060 172.604,179.095 173.864,179.700 174.589 C 180.305 175.313,180.800 176.178,180.800 176.510 C 180.800 176.842,181.062 177.215,181.382 177.338 C 181.702 177.461,182.319 178.257,182.753 179.107 C 183.187 179.958,183.813 180.879,184.145 181.154 C 184.477 181.430,184.868 182.201,185.015 182.868 C 185.162 183.536,185.619 184.419,186.031 184.831 C 186.443 185.243,186.900 186.079,187.046 186.690 C 187.193 187.300,187.738 188.536,188.257 189.435 C 188.775 190.334,189.200 191.342,189.200 191.674 C 189.200 192.006,189.565 192.698,190.011 193.213 C 190.457 193.727,190.928 194.609,191.058 195.174 C 191.188 195.738,191.699 196.920,192.193 197.800 C 192.688 198.680,193.316 200.120,193.590 201.000 C 193.864 201.880,194.321 202.787,194.606 203.016 C 194.891 203.245,195.338 204.235,195.599 205.216 C 195.861 206.197,196.312 207.270,196.602 207.600 C 196.893 207.930,197.520 209.280,197.995 210.600 C 198.471 211.920,199.137 213.763,199.476 214.695 C 200.208 216.711,200.633 216.601,201.004 214.298 C 201.154 213.364,201.513 212.226,201.802 211.769 C 202.092 211.312,202.613 209.977,202.962 208.802 C 203.311 207.628,203.836 206.382,204.129 206.033 C 204.422 205.685,204.889 204.590,205.166 203.600 C 205.443 202.610,205.909 201.424,206.202 200.964 C 206.495 200.504,206.940 199.334,207.192 198.364 C 207.443 197.394,207.970 196.150,208.361 195.600 C 208.753 195.050,209.295 193.928,209.566 193.106 C 209.837 192.284,210.225 191.508,210.428 191.382 C 210.632 191.257,211.262 190.174,211.828 188.977 C 212.395 187.780,213.011 186.800,213.197 186.800 C 213.384 186.800,213.657 186.251,213.804 185.581 C 213.951 184.910,214.416 184.147,214.836 183.885 C 215.256 183.622,215.600 183.220,215.600 182.991 C 215.600 182.761,216.494 181.320,217.587 179.787 C 218.680 178.254,219.825 176.460,220.132 175.800 C 220.439 175.140,221.074 174.257,221.545 173.838 C 222.015 173.419,222.400 172.841,222.400 172.554 C 222.400 172.266,222.771 171.685,223.225 171.262 C 224.130 170.420,225.249 168.621,226.313 166.300 C 226.691 165.476,227.315 164.699,227.699 164.574 C 228.084 164.449,228.506 163.915,228.639 163.388 C 228.771 162.860,229.222 162.320,229.640 162.187 C 230.058 162.055,230.400 161.594,230.400 161.164 C 230.400 160.719,230.830 160.187,231.400 159.927 C 231.950 159.677,232.400 159.215,232.400 158.901 C 232.400 158.587,232.940 158.127,233.600 157.878 C 234.308 157.610,234.800 157.136,234.800 156.720 C 234.800 156.305,235.205 155.914,235.786 155.768 C 236.328 155.632,236.880 155.179,237.012 154.761 C 237.145 154.344,237.691 153.892,238.227 153.758 C 238.762 153.623,239.200 153.254,239.200 152.938 C 239.200 152.622,239.730 152.059,240.378 151.687 C 241.026 151.315,241.639 150.693,241.741 150.305 C 241.843 149.915,242.299 149.600,242.763 149.600 C 243.223 149.600,243.600 149.434,243.600 149.231 C 243.600 149.028,244.056 148.319,244.614 147.656 C 245.687 146.381,245.687 146.018,244.607 142.600 C 244.329 141.720,243.974 139.659,243.819 138.020 C 243.606 135.780,243.309 134.770,242.625 133.957 C 242.124 133.361,241.601 132.168,241.463 131.305 C 241.325 130.441,240.857 129.414,240.424 129.021 C 239.975 128.615,239.518 127.510,239.362 126.454 C 239.195 125.317,238.724 124.231,238.145 123.645 C 237.625 123.120,237.200 122.279,237.200 121.776 C 237.200 121.273,236.778 120.353,236.262 119.731 C 235.746 119.109,235.205 117.986,235.059 117.236 C 234.913 116.485,234.436 115.620,233.997 115.313 C 233.559 115.006,233.200 114.430,233.200 114.032 C 233.200 113.635,232.656 112.625,231.991 111.789 C 231.326 110.952,230.675 109.842,230.545 109.323 C 230.415 108.804,229.969 108.197,229.554 107.975 C 229.139 107.753,228.800 107.246,228.800 106.848 C 228.800 106.450,228.422 105.782,227.959 105.363 C 227.497 104.944,226.840 104.061,226.499 103.401 C 226.159 102.740,225.548 101.965,225.140 101.677 C 224.733 101.390,224.400 100.916,224.400 100.623 C 224.400 100.331,223.964 99.806,223.430 99.457 C 222.897 99.107,222.345 98.457,222.203 98.011 C 222.062 97.565,221.683 97.200,221.360 97.200 C 221.038 97.200,220.660 96.885,220.520 96.500 C 220.224 95.687,216.887 92.400,216.358 92.400 C 216.161 92.400,216.000 92.126,216.000 91.791 C 216.000 91.457,215.550 90.978,215.000 90.727 C 214.450 90.477,214.000 90.035,214.000 89.746 C 214.000 89.457,213.483 88.953,212.851 88.626 C 212.219 88.299,211.606 87.665,211.488 87.216 C 211.371 86.767,211.009 86.400,210.683 86.400 C 210.358 86.400,209.797 85.950,209.437 85.400 C 209.076 84.850,208.512 84.400,208.182 84.400 C 207.853 84.400,207.378 83.950,207.127 83.400 C 206.877 82.850,206.458 82.400,206.197 82.400 C 205.936 82.400,205.290 82.017,204.761 81.549 C 204.233 81.081,203.246 80.462,202.568 80.172 C 201.891 79.883,201.104 79.366,200.819 79.023 C 200.255 78.344,197.600 78.155,197.600 78.795 M191.758 139.184 C 193.632 139.897,197.177 143.463,197.870 145.332 C 199.169 148.842,198.246 152.423,195.314 155.248 L 193.101 157.378 189.044 157.389 C 184.757 157.401,182.135 156.196,181.365 153.861 C 181.231 153.454,180.802 152.802,180.413 152.413 C 178.873 150.873,179.082 145.114,180.735 143.574 C 181.177 143.163,181.654 142.461,181.796 142.014 C 181.938 141.566,182.208 141.200,182.396 141.200 C 182.585 141.200,183.247 140.772,183.869 140.249 C 185.542 138.841,189.463 138.312,191.758 139.184 M214.300 139.171 C 215.931 139.639,219.081 142.191,219.439 143.335 C 219.588 143.811,220.045 144.629,220.455 145.154 C 221.489 146.478,221.507 151.083,220.484 152.446 C 220.090 152.971,219.552 153.900,219.288 154.511 C 219.023 155.122,218.535 155.727,218.203 155.854 C 217.872 155.981,217.600 156.317,217.600 156.600 C 217.600 158.524,206.716 158.238,205.031 156.270 C 204.574 155.736,203.885 155.192,203.500 155.062 C 203.115 154.932,202.800 154.533,202.800 154.176 C 202.800 153.818,202.440 153.069,202.000 152.509 C 199.658 149.532,202.507 141.563,206.248 140.624 C 206.772 140.492,207.200 140.202,207.200 139.979 C 207.200 138.940,211.705 138.427,214.300 139.171 M79.400 144.667 C 78.264 144.807,74.655 145.581,70.900 146.492 C 68.965 146.961,68.604 148.411,69.792 150.940 C 70.118 151.633,70.641 154.051,70.955 156.313 C 71.268 158.575,71.799 160.844,72.134 161.356 C 72.470 161.868,72.946 163.397,73.192 164.753 C 73.438 166.110,73.977 167.801,74.390 168.510 C 74.803 169.220,75.263 170.469,75.413 171.286 C 75.562 172.103,75.925 172.972,76.220 173.217 C 76.515 173.461,77.063 174.593,77.437 175.731 C 77.812 176.869,78.451 178.229,78.859 178.754 C 79.267 179.279,79.600 180.019,79.600 180.400 C 79.600 180.781,79.958 181.548,80.396 182.105 C 80.835 182.662,81.568 183.901,82.027 184.859 C 83.319 187.558,84.551 189.794,85.094 190.425 C 86.379 191.921,87.569 193.521,88.331 194.778 C 89.268 196.324,93.793 201.656,95.987 203.800 C 96.212 204.020,97.641 205.505,99.163 207.100 C 100.684 208.695,102.096 210.000,102.300 210.000 C 102.504 210.000,102.877 210.450,103.127 211.000 C 103.378 211.550,103.836 212.000,104.145 212.000 C 104.455 212.000,105.003 212.450,105.363 213.000 C 105.724 213.550,106.212 214.000,106.449 214.000 C 106.685 214.000,107.380 214.495,107.991 215.100 C 108.603 215.705,109.862 216.740,110.789 217.400 C 111.715 218.060,112.915 219.005,113.455 219.500 C 113.995 219.995,114.594 220.400,114.787 220.400 C 114.981 220.400,115.647 220.825,116.269 221.344 C 117.314 222.216,118.081 222.696,121.228 224.447 C 121.867 224.803,122.687 225.343,123.049 225.647 C 123.753 226.239,125.889 227.409,128.800 228.798 C 129.790 229.271,130.870 229.894,131.200 230.184 C 131.530 230.474,132.393 230.837,133.118 230.991 C 133.842 231.145,134.742 231.583,135.118 231.964 C 135.493 232.345,136.639 232.968,137.665 233.348 C 138.690 233.728,139.630 234.300,139.752 234.620 C 139.875 234.939,140.316 235.200,140.732 235.200 C 141.149 235.200,142.169 235.740,143.000 236.400 C 143.831 237.060,144.724 237.600,144.985 237.600 C 145.247 237.600,145.883 238.050,146.400 238.600 C 146.917 239.150,147.509 239.600,147.717 239.600 C 147.925 239.600,148.709 240.140,149.461 240.800 C 150.213 241.460,151.064 242.000,151.352 242.000 C 151.640 242.000,152.209 242.368,152.617 242.819 C 153.024 243.269,153.952 243.919,154.679 244.264 C 155.406 244.609,156.000 245.046,156.000 245.235 C 156.000 245.425,156.585 245.881,157.300 246.249 C 158.015 246.618,158.835 247.252,159.123 247.660 C 159.410 248.067,159.841 248.400,160.081 248.400 C 160.320 248.400,160.895 248.762,161.358 249.204 C 163.066 250.833,164.925 252.400,165.159 252.406 C 165.292 252.410,166.009 252.950,166.754 253.606 C 167.499 254.263,168.244 254.800,168.410 254.800 C 168.575 254.800,169.733 255.790,170.982 257.000 C 172.232 258.210,173.410 259.200,173.600 259.200 C 173.790 259.200,174.057 259.551,174.194 259.980 C 174.330 260.408,174.791 260.870,175.220 261.006 C 175.648 261.142,176.104 261.674,176.233 262.189 C 176.362 262.703,176.812 263.214,177.232 263.324 C 177.652 263.434,178.103 263.804,178.235 264.147 C 178.366 264.489,179.712 266.068,181.226 267.656 C 182.740 269.244,184.345 271.321,184.792 272.271 C 185.238 273.222,185.788 274.000,186.012 274.000 C 186.236 274.000,186.596 274.462,186.810 275.027 C 187.025 275.592,187.651 276.644,188.200 277.365 C 188.750 278.086,189.200 278.974,189.200 279.338 C 189.200 280.342,189.688 280.140,190.884 278.641 C 191.812 277.478,191.916 277.101,191.603 276.012 C 191.384 275.246,191.385 273.124,191.606 270.670 C 192.074 265.478,192.070 250.998,191.599 247.600 C 190.653 240.775,189.556 234.629,189.209 234.211 C 188.998 233.957,188.541 231.981,188.193 229.820 C 187.845 227.659,187.235 225.241,186.837 224.446 C 186.438 223.651,185.991 221.928,185.843 220.617 C 185.695 219.306,185.320 217.954,185.011 217.612 C 184.701 217.270,184.240 216.092,183.985 214.995 C 183.731 213.898,183.190 212.280,182.783 211.400 C 182.377 210.520,181.844 209.026,181.601 208.079 C 181.357 207.132,180.807 206.007,180.379 205.579 C 179.951 205.151,179.600 204.454,179.600 204.032 C 179.600 203.176,177.061 197.930,175.928 196.446 C 175.528 195.921,175.200 195.178,175.200 194.795 C 175.200 194.412,174.917 193.863,174.571 193.576 C 174.225 193.289,173.587 192.359,173.154 191.510 C 172.721 190.661,172.014 189.614,171.583 189.183 C 171.153 188.753,170.800 188.222,170.800 188.003 C 170.800 187.553,168.404 184.215,167.198 182.986 C 166.759 182.538,166.398 181.998,166.396 181.786 C 166.393 181.574,165.614 180.557,164.663 179.526 C 163.713 178.496,162.474 177.056,161.910 176.326 C 159.749 173.529,154.085 168.105,149.310 164.261 C 148.995 164.007,148.185 163.305,147.510 162.700 C 146.834 162.095,146.107 161.600,145.893 161.600 C 145.680 161.600,144.891 161.060,144.139 160.400 C 143.387 159.740,142.519 159.200,142.209 159.200 C 141.899 159.200,141.410 158.868,141.123 158.461 C 140.835 158.055,139.947 157.508,139.148 157.246 C 138.350 156.984,137.393 156.434,137.022 156.025 C 136.651 155.615,135.719 155.161,134.952 155.017 C 134.184 154.873,133.230 154.430,132.832 154.032 C 132.435 153.635,131.410 153.183,130.555 153.027 C 129.700 152.872,128.716 152.380,128.369 151.934 C 127.992 151.449,126.945 150.976,125.769 150.758 C 124.686 150.558,123.596 150.120,123.347 149.785 C 123.098 149.451,121.748 148.979,120.347 148.736 C 118.946 148.494,117.270 148.027,116.622 147.698 C 115.975 147.368,113.815 146.863,111.822 146.574 C 109.830 146.285,106.230 145.677,103.823 145.224 C 99.704 144.449,84.079 144.092,79.400 144.667 M301.000 144.652 C 300.340 144.750,298.000 145.173,295.800 145.592 C 293.600 146.011,290.522 146.526,288.959 146.736 C 287.397 146.946,285.597 147.383,284.959 147.708 C 284.322 148.033,282.720 148.427,281.400 148.585 C 280.080 148.743,278.460 149.200,277.800 149.600 C 277.140 150.000,275.794 150.541,274.810 150.803 C 273.825 151.065,272.791 151.606,272.512 152.004 C 272.233 152.403,271.282 152.851,270.400 153.000 C 269.518 153.149,268.567 153.597,268.288 153.996 C 268.009 154.394,267.026 154.924,266.103 155.172 C 265.181 155.421,264.286 155.862,264.113 156.153 C 263.689 156.871,262.235 157.600,261.226 157.600 C 260.746 157.600,260.400 157.860,260.400 158.220 C 260.400 158.562,259.762 159.107,258.983 159.433 C 258.203 159.759,257.469 160.276,257.352 160.582 C 257.234 160.888,256.456 161.411,255.621 161.745 C 254.787 162.079,253.996 162.633,253.865 162.976 C 253.733 163.319,253.300 163.600,252.902 163.600 C 252.504 163.600,251.707 164.095,251.131 164.700 C 250.556 165.305,249.427 166.340,248.623 167.000 C 247.819 167.660,245.413 169.910,243.276 172.000 C 241.140 174.090,238.223 176.914,236.796 178.275 C 233.736 181.193,232.000 183.199,232.000 183.816 C 232.000 184.061,231.567 184.667,231.038 185.164 C 230.509 185.661,229.961 186.680,229.821 187.429 C 229.680 188.178,229.213 188.979,228.783 189.209 C 228.352 189.440,228.000 189.973,228.000 190.395 C 228.000 191.340,227.182 193.200,226.767 193.200 C 226.599 193.200,226.264 193.801,226.021 194.537 C 225.778 195.272,225.134 196.261,224.590 196.734 C 224.045 197.207,223.600 197.956,223.600 198.397 C 223.600 198.839,223.273 199.527,222.872 199.928 C 222.472 200.328,221.832 201.438,221.449 202.394 C 221.066 203.351,220.404 204.578,219.977 205.121 C 219.549 205.664,219.200 206.409,219.200 206.776 C 219.200 207.144,218.759 208.042,218.221 208.772 C 217.682 209.501,217.120 210.661,216.971 211.349 C 216.822 212.037,216.345 213.103,215.911 213.717 C 215.440 214.384,214.976 215.985,214.763 217.684 C 214.566 219.250,214.157 220.911,213.854 221.373 C 213.551 221.836,213.109 223.651,212.872 225.407 C 212.634 227.163,212.137 229.410,211.768 230.400 C 211.398 231.390,210.866 234.202,210.585 236.649 C 210.304 239.095,209.809 241.615,209.487 242.249 C 208.401 244.378,207.281 277.788,208.216 280.129 C 208.531 280.916,211.600 278.412,211.600 277.368 C 211.600 277.109,211.883 276.663,212.229 276.376 C 212.575 276.089,213.213 275.159,213.646 274.310 C 214.079 273.461,214.786 272.414,215.217 271.983 C 215.647 271.553,216.000 271.038,216.000 270.840 C 216.000 270.376,218.625 266.472,219.649 265.414 C 220.082 264.966,222.136 262.890,224.213 260.800 C 227.948 257.041,228.894 256.190,232.400 253.437 C 233.390 252.659,234.634 251.658,235.163 251.212 C 235.693 250.765,236.358 250.400,236.641 250.400 C 236.923 250.400,237.390 250.067,237.677 249.660 C 237.965 249.252,238.740 248.641,239.401 248.301 C 240.061 247.960,240.944 247.303,241.363 246.841 C 241.782 246.378,242.435 246.000,242.816 246.000 C 243.197 246.000,243.803 245.550,244.163 245.000 C 244.524 244.450,245.062 244.000,245.360 244.000 C 245.658 244.000,246.149 243.701,246.451 243.335 C 246.753 242.969,247.765 242.331,248.700 241.916 C 249.635 241.502,250.400 240.999,250.400 240.800 C 250.400 240.601,251.165 240.098,252.100 239.684 C 253.035 239.269,254.047 238.631,254.349 238.265 C 254.651 237.899,255.132 237.600,255.418 237.600 C 255.704 237.600,256.475 237.149,257.129 236.598 C 257.784 236.047,258.885 235.483,259.574 235.345 C 260.264 235.207,260.991 234.790,261.191 234.418 C 261.390 234.045,262.262 233.528,263.129 233.269 C 263.996 233.009,264.921 232.536,265.185 232.219 C 265.448 231.901,266.325 231.430,267.132 231.171 C 267.939 230.913,268.960 230.381,269.400 229.989 C 269.840 229.597,270.965 229.050,271.900 228.775 C 272.835 228.499,273.600 228.115,273.600 227.922 C 273.600 227.729,274.368 227.243,275.306 226.840 C 276.244 226.438,277.246 225.826,277.533 225.480 C 277.820 225.134,278.595 224.733,279.255 224.588 C 279.914 224.443,280.554 224.065,280.676 223.747 C 280.797 223.430,281.536 222.903,282.316 222.577 C 283.097 222.251,283.971 221.648,284.259 221.238 C 284.546 220.827,285.236 220.377,285.791 220.238 C 286.346 220.099,286.800 219.812,286.800 219.601 C 286.800 219.389,287.475 218.872,288.300 218.451 C 289.125 218.030,290.143 217.306,290.562 216.843 C 290.981 216.379,291.526 216.000,291.773 216.000 C 292.020 216.000,292.686 215.505,293.254 214.900 C 293.821 214.295,294.896 213.297,295.643 212.682 C 297.318 211.302,297.679 210.976,298.256 210.319 C 298.507 210.034,299.445 209.170,300.340 208.400 C 301.235 207.630,301.975 206.796,301.984 206.546 C 301.993 206.296,302.436 205.806,302.970 205.457 C 303.503 205.107,304.055 204.457,304.197 204.011 C 304.338 203.565,304.716 203.200,305.037 203.200 C 305.357 203.200,305.787 202.761,305.991 202.224 C 306.195 201.688,306.730 201.051,307.181 200.810 C 307.631 200.569,308.000 200.112,308.000 199.795 C 308.000 199.478,308.450 198.924,309.000 198.563 C 309.550 198.203,310.000 197.673,310.000 197.385 C 310.000 197.097,310.445 196.333,310.989 195.686 C 311.533 195.040,312.158 194.036,312.379 193.456 C 312.600 192.875,313.019 192.400,313.310 192.400 C 313.602 192.400,314.234 191.590,314.715 190.600 C 315.196 189.610,315.758 188.800,315.963 188.800 C 316.168 188.800,316.455 188.259,316.601 187.597 C 316.746 186.935,317.204 186.212,317.618 185.990 C 318.033 185.768,318.590 184.859,318.856 183.970 C 319.123 183.080,319.669 182.177,320.070 181.962 C 320.472 181.748,320.800 181.249,320.800 180.855 C 320.800 180.460,321.318 179.341,321.951 178.369 C 322.584 177.396,323.218 175.950,323.359 175.155 C 323.500 174.360,323.972 173.387,324.408 172.993 C 324.844 172.599,325.200 171.769,325.200 171.150 C 325.200 170.530,325.630 169.073,326.157 167.912 C 326.683 166.750,327.240 164.810,327.394 163.600 C 327.549 162.390,328.033 160.780,328.470 160.022 C 328.948 159.193,329.402 157.359,329.608 155.422 C 329.796 153.650,330.076 151.168,330.229 149.906 C 330.577 147.051,330.215 146.560,327.488 146.185 C 326.348 146.028,324.693 145.628,323.808 145.295 C 322.226 144.700,304.111 144.189,301.000 144.652 " stroke="none" fill="#f3b4b2" fill-rule="evenodd"/></g></svg>